<svg width="176" height="54" viewBox="0 0 176 54" fill="none" xmlns="http://www.w3.org/2000/svg">
<path d="M21.28 2.8L13.48 21H8.41L0.636 2.8H6.2L11.14 14.656L16.184 2.8H21.28ZM27.0764 6.674C29.4164 6.674 31.2017 7.21133 32.4324 8.286C33.663 9.34333 34.2784 10.9727 34.2784 13.174V21H29.6764V19.18C28.9657 20.5493 27.579 21.234 25.5164 21.234C24.4244 21.234 23.4797 21.0433 22.6824 20.662C21.885 20.2807 21.2784 19.7693 20.8624 19.128C20.4637 18.4693 20.2644 17.724 20.2644 16.892C20.2644 15.5573 20.7757 14.526 21.7984 13.798C22.821 13.0527 24.3984 12.68 26.5304 12.68H29.3384C29.2517 11.1893 28.255 10.444 26.3484 10.444C25.6724 10.444 24.9877 10.5567 24.2944 10.782C23.601 10.99 23.0117 11.2847 22.5264 11.666L20.8624 8.312C21.6424 7.792 22.587 7.39333 23.6964 7.116C24.823 6.82133 25.9497 6.674 27.0764 6.674ZM26.8944 18.114C27.4664 18.114 27.969 17.9753 28.4024 17.698C28.8357 17.4207 29.1477 17.0133 29.3384 16.476V15.254H27.2064C25.7677 15.254 25.0484 15.7307 25.0484 16.684C25.0484 17.1173 25.213 17.464 25.5424 17.724C25.8717 17.984 26.3224 18.114 26.8944 18.114ZM37.3965 1.708H42.3365V21H37.3965V1.708ZM59.9509 13.98C59.9509 14.0147 59.9249 14.422 59.8729 15.202H49.6289C49.8369 15.93 50.2356 16.4933 50.8249 16.892C51.4316 17.2733 52.1856 17.464 53.0869 17.464C53.7629 17.464 54.3436 17.3687 54.8289 17.178C55.3316 16.9873 55.8343 16.6753 56.3369 16.242L58.9369 18.946C57.5676 20.4713 55.5656 21.234 52.9309 21.234C51.2843 21.234 49.8369 20.922 48.5889 20.298C47.3409 19.674 46.3703 18.8073 45.6769 17.698C45.0009 16.5887 44.6629 15.332 44.6629 13.928C44.6629 12.5413 44.9923 11.302 45.6509 10.21C46.3269 9.10067 47.2543 8.234 48.4329 7.61C49.6116 6.986 50.9376 6.674 52.4109 6.674C53.8149 6.674 55.0889 6.96867 56.2329 7.558C57.3769 8.13 58.2783 8.97067 58.9369 10.08C59.6129 11.172 59.9509 12.472 59.9509 13.98ZM52.4369 10.184C51.6743 10.184 51.0329 10.4007 50.5129 10.834C50.0103 11.2673 49.6896 11.8567 49.5509 12.602H55.3229C55.1843 11.8567 54.8549 11.2673 54.3349 10.834C53.8323 10.4007 53.1996 10.184 52.4369 10.184ZM71.4066 6.674C73.1572 6.674 74.5612 7.194 75.6186 8.234C76.6932 9.274 77.2306 10.8427 77.2306 12.94V21H72.2906V13.746C72.2906 11.822 71.5192 10.86 69.9766 10.86C69.1272 10.86 68.4426 11.1373 67.9226 11.692C67.4199 12.2467 67.1686 13.0787 67.1686 14.188V21H62.2286V6.908H66.9346V8.442C67.4892 7.87 68.1479 7.43667 68.9106 7.142C69.6732 6.83 70.5052 6.674 71.4066 6.674ZM90.0561 20.428C89.6401 20.688 89.1288 20.8873 88.5221 21.026C87.9328 21.1647 87.3001 21.234 86.6241 21.234C84.7868 21.234 83.3741 20.7833 82.3861 19.882C81.3981 18.9807 80.9041 17.6373 80.9041 15.852V11.12H78.8501V7.428H80.9041V3.762H85.8441V7.428H89.0681V11.12H85.8441V15.8C85.8441 16.3027 85.9741 16.7013 86.2341 16.996C86.5114 17.2733 86.8754 17.412 87.3261 17.412C87.8981 17.412 88.4008 17.2647 88.8341 16.97L90.0561 20.428ZM91.961 6.908H96.901V21H91.961V6.908ZM94.431 5.348C93.5297 5.348 92.8017 5.09667 92.247 4.594C91.6923 4.09133 91.415 3.46733 91.415 2.722C91.415 1.97667 91.6923 1.35267 92.247 0.849999C92.8017 0.347333 93.5297 0.0959995 94.431 0.0959995C95.3323 0.0959995 96.0603 0.338666 96.615 0.823999C97.1697 1.292 97.447 1.89867 97.447 2.644C97.447 3.424 97.1697 4.074 96.615 4.594C96.0603 5.09667 95.3323 5.348 94.431 5.348ZM109.289 6.674C111.04 6.674 112.444 7.194 113.501 8.234C114.576 9.274 115.113 10.8427 115.113 12.94V21H110.173V13.746C110.173 11.822 109.402 10.86 107.859 10.86C107.01 10.86 106.325 11.1373 105.805 11.692C105.303 12.2467 105.051 13.0787 105.051 14.188V21H100.111V6.908H104.817V8.442C105.372 7.87 106.031 7.43667 106.793 7.142C107.556 6.83 108.388 6.674 109.289 6.674ZM124.221 6.674C126.561 6.674 128.346 7.21133 129.577 8.286C130.808 9.34333 131.423 10.9727 131.423 13.174V21H126.821V19.18C126.11 20.5493 124.724 21.234 122.661 21.234C121.569 21.234 120.624 21.0433 119.827 20.662C119.03 20.2807 118.423 19.7693 118.007 19.128C117.608 18.4693 117.409 17.724 117.409 16.892C117.409 15.5573 117.92 14.526 118.943 13.798C119.966 13.0527 121.543 12.68 123.675 12.68H126.483C126.396 11.1893 125.4 10.444 123.493 10.444C122.817 10.444 122.132 10.5567 121.439 10.782C120.746 10.99 120.156 11.2847 119.671 11.666L118.007 8.312C118.787 7.792 119.732 7.39333 120.841 7.116C121.968 6.82133 123.094 6.674 124.221 6.674ZM124.039 18.114C124.611 18.114 125.114 17.9753 125.547 17.698C125.98 17.4207 126.292 17.0133 126.483 16.476V15.254H124.351C122.912 15.254 122.193 15.7307 122.193 16.684C122.193 17.1173 122.358 17.464 122.687 17.724C123.016 17.984 123.467 18.114 124.039 18.114ZM15.014 43.51H19.564V51.05C18.524 51.7953 17.328 52.3673 15.976 52.766C14.624 53.1647 13.272 53.364 11.92 53.364C10.0133 53.364 8.29733 52.9653 6.772 52.168C5.24667 51.3533 4.05067 50.2267 3.184 48.788C2.31733 47.3493 1.884 45.72 1.884 43.9C1.884 42.08 2.31733 40.4507 3.184 39.012C4.05067 37.5733 5.25533 36.4553 6.798 35.658C8.34067 34.8433 10.0827 34.436 12.024 34.436C13.7227 34.436 15.248 34.722 16.6 35.294C17.952 35.866 19.0787 36.6893 19.98 37.764L16.704 40.728C15.4733 39.376 14 38.7 12.284 38.7C10.724 38.7 9.46733 39.1767 8.514 40.13C7.56067 41.066 7.084 42.3227 7.084 43.9C7.084 44.9053 7.30067 45.8067 7.734 46.604C8.16733 47.384 8.774 47.9993 9.554 48.45C10.334 48.8833 11.2267 49.1 12.232 49.1C13.22 49.1 14.1473 48.9007 15.014 48.502V43.51ZM37.4138 38.908V53H32.7078V51.492C32.1878 52.064 31.5638 52.4973 30.8358 52.792C30.1078 53.0867 29.3365 53.234 28.5218 53.234C26.7018 53.234 25.2458 52.6967 24.1538 51.622C23.0791 50.5473 22.5418 48.9353 22.5418 46.786V38.908H27.4818V45.98C27.4818 47.0373 27.6811 47.8087 28.0798 48.294C28.4785 48.7793 29.0591 49.022 29.8218 49.022C30.6018 49.022 31.2345 48.7533 31.7198 48.216C32.2225 47.6613 32.4738 46.8207 32.4738 45.694V38.908H37.4138ZM54.9998 45.98C54.9998 46.0147 54.9738 46.422 54.9218 47.202H44.6778C44.8858 47.93 45.2844 48.4933 45.8738 48.892C46.4804 49.2733 47.2344 49.464 48.1358 49.464C48.8118 49.464 49.3924 49.3687 49.8778 49.178C50.3804 48.9873 50.8831 48.6753 51.3858 48.242L53.9858 50.946C52.6164 52.4713 50.6144 53.234 47.9798 53.234C46.3331 53.234 44.8858 52.922 43.6378 52.298C42.3898 51.674 41.4191 50.8073 40.7258 49.698C40.0498 48.5887 39.7118 47.332 39.7118 45.928C39.7118 44.5413 40.0411 43.302 40.6998 42.21C41.3758 41.1007 42.3031 40.234 43.4818 39.61C44.6604 38.986 45.9864 38.674 47.4598 38.674C48.8638 38.674 50.1378 38.9687 51.2818 39.558C52.4258 40.13 53.3271 40.9707 53.9858 42.08C54.6618 43.172 54.9998 44.472 54.9998 45.98ZM47.4858 42.184C46.7231 42.184 46.0818 42.4007 45.5618 42.834C45.0591 43.2673 44.7384 43.8567 44.5998 44.602H50.3718C50.2331 43.8567 49.9038 43.2673 49.3838 42.834C48.8811 42.4007 48.2484 42.184 47.4858 42.184ZM62.3994 53.234C61.2207 53.234 60.0594 53.104 58.9154 52.844C57.7714 52.5667 56.8527 52.2113 56.1594 51.778L57.6414 48.398C58.2827 48.7967 59.0454 49.1173 59.9294 49.36C60.8134 49.5853 61.6887 49.698 62.5554 49.698C63.3527 49.698 63.9161 49.62 64.2454 49.464C64.5921 49.2907 64.7654 49.048 64.7654 48.736C64.7654 48.424 64.5574 48.2073 64.1414 48.086C63.7427 47.9473 63.1014 47.8173 62.2174 47.696C61.0907 47.5573 60.1287 47.3753 59.3314 47.15C58.5514 46.9247 57.8754 46.5087 57.3034 45.902C56.7314 45.2953 56.4454 44.446 56.4454 43.354C56.4454 42.4527 56.7141 41.6553 57.2514 40.962C57.7887 40.2513 58.5687 39.6967 59.5914 39.298C60.6314 38.882 61.8707 38.674 63.3094 38.674C64.3321 38.674 65.3461 38.778 66.3514 38.986C67.3567 39.194 68.1974 39.4887 68.8734 39.87L67.3914 43.224C66.1434 42.5307 64.7914 42.184 63.3354 42.184C62.5554 42.184 61.9834 42.2793 61.6194 42.47C61.2554 42.6433 61.0734 42.8773 61.0734 43.172C61.0734 43.5013 61.2727 43.7353 61.6714 43.874C62.0701 43.9953 62.7287 44.1253 63.6474 44.264C64.8087 44.4373 65.7707 44.6367 66.5334 44.862C67.2961 45.0873 67.9547 45.5033 68.5094 46.11C69.0814 46.6993 69.3674 47.5313 69.3674 48.606C69.3674 49.49 69.0987 50.2873 68.5614 50.998C68.0241 51.6913 67.2267 52.2373 66.1694 52.636C65.1294 53.0347 63.8727 53.234 62.3994 53.234ZM81.2202 52.428C80.8042 52.688 80.2928 52.8873 79.6862 53.026C79.0968 53.1647 78.4642 53.234 77.7882 53.234C75.9508 53.234 74.5382 52.7833 73.5502 51.882C72.5622 50.9807 72.0682 49.6373 72.0682 47.852V43.12H70.0142V39.428H72.0682V35.762H77.0082V39.428H80.2322V43.12H77.0082V47.8C77.0082 48.3027 77.1382 48.7013 77.3982 48.996C77.6755 49.2733 78.0395 49.412 78.4902 49.412C79.0622 49.412 79.5648 49.2647 79.9982 48.97L81.2202 52.428ZM108.241 34.8V53H103.093V45.902H96.0735V53H90.9255V34.8H96.0735V41.638H103.093V34.8H108.241ZM118.711 53.234C117.203 53.234 115.842 52.922 114.629 52.298C113.415 51.674 112.462 50.8073 111.769 49.698C111.093 48.5887 110.755 47.332 110.755 45.928C110.755 44.5413 111.093 43.2933 111.769 42.184C112.462 41.0747 113.407 40.2167 114.603 39.61C115.816 38.986 117.185 38.674 118.711 38.674C120.236 38.674 121.605 38.986 122.819 39.61C124.032 40.2167 124.977 41.0747 125.653 42.184C126.329 43.276 126.667 44.524 126.667 45.928C126.667 47.332 126.329 48.5887 125.653 49.698C124.977 50.8073 124.032 51.674 122.819 52.298C121.605 52.922 120.236 53.234 118.711 53.234ZM118.711 49.308C119.577 49.308 120.288 49.0133 120.843 48.424C121.397 47.8173 121.675 46.9853 121.675 45.928C121.675 44.888 121.397 44.0733 120.843 43.484C120.288 42.8947 119.577 42.6 118.711 42.6C117.844 42.6 117.133 42.8947 116.579 43.484C116.024 44.0733 115.747 44.888 115.747 45.928C115.747 46.9853 116.024 47.8173 116.579 48.424C117.133 49.0133 117.844 49.308 118.711 49.308ZM143.775 38.908V53H139.069V51.492C138.549 52.064 137.925 52.4973 137.197 52.792C136.469 53.0867 135.698 53.234 134.883 53.234C133.063 53.234 131.607 52.6967 130.515 51.622C129.44 50.5473 128.903 48.9353 128.903 46.786V38.908H133.843V45.98C133.843 47.0373 134.042 47.8087 134.441 48.294C134.84 48.7793 135.42 49.022 136.183 49.022C136.963 49.022 137.596 48.7533 138.081 48.216C138.584 47.6613 138.835 46.8207 138.835 45.694V38.908H143.775ZM152.079 53.234C150.9 53.234 149.739 53.104 148.595 52.844C147.451 52.5667 146.532 52.2113 145.839 51.778L147.321 48.398C147.962 48.7967 148.725 49.1173 149.609 49.36C150.493 49.5853 151.368 49.698 152.235 49.698C153.032 49.698 153.596 49.62 153.925 49.464C154.272 49.2907 154.445 49.048 154.445 48.736C154.445 48.424 154.237 48.2073 153.821 48.086C153.422 47.9473 152.781 47.8173 151.897 47.696C150.77 47.5573 149.808 47.3753 149.011 47.15C148.231 46.9247 147.555 46.5087 146.983 45.902C146.411 45.2953 146.125 44.446 146.125 43.354C146.125 42.4527 146.394 41.6553 146.931 40.962C147.468 40.2513 148.248 39.6967 149.271 39.298C150.311 38.882 151.55 38.674 152.989 38.674C154.012 38.674 155.026 38.778 156.031 38.986C157.036 39.194 157.877 39.4887 158.553 39.87L157.071 43.224C155.823 42.5307 154.471 42.184 153.015 42.184C152.235 42.184 151.663 42.2793 151.299 42.47C150.935 42.6433 150.753 42.8773 150.753 43.172C150.753 43.5013 150.952 43.7353 151.351 43.874C151.75 43.9953 152.408 44.1253 153.327 44.264C154.488 44.4373 155.45 44.6367 156.213 44.862C156.976 45.0873 157.634 45.5033 158.189 46.11C158.761 46.6993 159.047 47.5313 159.047 48.606C159.047 49.49 158.778 50.2873 158.241 50.998C157.704 51.6913 156.906 52.2373 155.849 52.636C154.809 53.0347 153.552 53.234 152.079 53.234ZM175.58 45.98C175.58 46.0147 175.554 46.422 175.502 47.202H165.258C165.466 47.93 165.865 48.4933 166.454 48.892C167.061 49.2733 167.815 49.464 168.716 49.464C169.392 49.464 169.973 49.3687 170.458 49.178C170.961 48.9873 171.463 48.6753 171.966 48.242L174.566 50.946C173.197 52.4713 171.195 53.234 168.56 53.234C166.913 53.234 165.466 52.922 164.218 52.298C162.97 51.674 161.999 50.8073 161.306 49.698C160.63 48.5887 160.292 47.332 160.292 45.928C160.292 44.5413 160.621 43.302 161.28 42.21C161.956 41.1007 162.883 40.234 164.062 39.61C165.241 38.986 166.567 38.674 168.04 38.674C169.444 38.674 170.718 38.9687 171.862 39.558C173.006 40.13 173.907 40.9707 174.566 42.08C175.242 43.172 175.58 44.472 175.58 45.98ZM168.066 42.184C167.303 42.184 166.662 42.4007 166.142 42.834C165.639 43.2673 165.319 43.8567 165.18 44.602H170.952C170.813 43.8567 170.484 43.2673 169.964 42.834C169.461 42.4007 168.829 42.184 168.066 42.184Z" fill="#585858"/>
</svg>
